TITLE ""
FILE "DISC1Track16.mp3" MP3
  TRACK 01 AUDIO
    TITLE "DISC1Track16_01"
    INDEX 01 00:00:00
  TRACK 02 AUDIO
    TITLE "DISC1Track16_02"
    INDEX 01 00:01:41
  TRACK 03 AUDIO
    TITLE "DISC1Track16_03"
    INDEX 01 00:01:57
  TRACK 04 AUDIO
    TITLE "DISC1Track16_04"
    INDEX 01 00:07:22
  TRACK 05 AUDIO
    TITLE "DISC1Track16_05"
    INDEX 01 00:11:45
  TRACK 06 AUDIO
    TITLE "DISC1Track16_06"
    INDEX 01 00:15:39
  TRACK 07 AUDIO
    TITLE "DISC1Track16_07"
    INDEX 01 00:15:53
  TRACK 08 AUDIO
    TITLE "DISC1Track16_08"
    INDEX 01 00:17:17
  TRACK 09 AUDIO
    TITLE "DISC1Track16_09"
    INDEX 01 00:19:37
  TRACK 10 AUDIO
    TITLE "DISC1Track16_10"
    INDEX 01 00:21:28
  TRACK 11 AUDIO
    TITLE "DISC1Track16_11"
    INDEX 01 00:21:40
  TRACK 12 AUDIO
    TITLE "DISC1Track16_12"
    INDEX 01 00:25:26
  TRACK 13 AUDIO
    TITLE "DISC1Track16_13"
    INDEX 01 00:29:06
  TRACK 14 AUDIO
    TITLE "DISC1Track16_14"
    INDEX 01 00:32:30
  TRACK 15 AUDIO
    TITLE "DISC1Track16_15"
    INDEX 01 00:32:46
  TRACK 16 AUDIO
    TITLE "DISC1Track16_16"
    INDEX 01 00:35:42
  TRACK 17 AUDIO
    TITLE "DISC1Track16_17"
    INDEX 01 00:38:30
  TRACK 18 AUDIO
    TITLE "DISC1Track16_18"
    INDEX 01 00:40:63
  TRACK 19 AUDIO
    TITLE "DISC1Track16_19"
    INDEX 01 00:41:05
  TRACK 20 AUDIO
    TITLE "DISC1Track16_20"
    INDEX 01 00:43:53
  TRACK 21 AUDIO
    TITLE "DISC1Track16_21"
    INDEX 01 00:46:55
  TRACK 22 AUDIO
    TITLE "DISC1Track16_22"
    INDEX 01 00:49:22
  TRACK 23 AUDIO
    TITLE "DISC1Track16_23"
    INDEX 01 00:49:38
  TRACK 24 AUDIO
    TITLE "DISC1Track16_24"
    INDEX 01 00:53:28
  TRACK 25 AUDIO
    TITLE "DISC1Track16_25"
    INDEX 01 00:56:44
  TRACK 26 AUDIO
    TITLE "DISC1Track16_26"
    INDEX 01 00:59:35
  TRACK 27 AUDIO
    TITLE "DISC1Track16_27"
    INDEX 01 00:59:48
  TRACK 28 AUDIO
    TITLE "DISC1Track16_28"
    INDEX 01 01:02:33
  TRACK 29 AUDIO
    TITLE "DISC1Track16_29"
    INDEX 01 01:04:71
  TRACK 30 AUDIO
    TITLE "DISC1Track16_30"
    INDEX 01 01:06:74
  TRACK 31 AUDIO
    TITLE "DISC1Track16_31"
    INDEX 01 01:07:13
  TRACK 32 AUDIO
    TITLE "DISC1Track16_32"
    INDEX 01 01:09:72
  TRACK 33 AUDIO
    TITLE "DISC1Track16_33"
    INDEX 01 01:12:35
  TRACK 34 AUDIO
    TITLE "DISC1Track16_34"
    INDEX 01 01:14:46
  TRACK 35 AUDIO
    TITLE "DISC1Track16_35"
    INDEX 01 01:14:66
  TRACK 36 AUDIO
    TITLE "DISC1Track16_36"
    INDEX 01 01:18:61
  TRACK 37 AUDIO
    TITLE "DISC1Track16_37"
    INDEX 01 01:23:27
  TRACK 38 AUDIO
    TITLE "DISC1Track16_38"
    INDEX 01 01:27:33
  TRACK 39 AUDIO
    TITLE "DISC1Track16_39"
    INDEX 01 01:27:51
  TRACK 40 AUDIO
    TITLE "DISC1Track16_40"
    INDEX 01 01:31:01
  TRACK 41 AUDIO
    TITLE "DISC1Track16_41"
    INDEX 01 01:34:70
  TRACK 42 AUDIO
    TITLE "DISC1Track16_42"
    INDEX 01 01:38:39
  TRACK 43 AUDIO
    TITLE "DISC1Track16_43"
    INDEX 01 01:38:54
  TRACK 44 AUDIO
    TITLE "DISC1Track16_44"
    INDEX 01 01:42:74
  TRACK 45 AUDIO
    TITLE "DISC1Track16_45"
    INDEX 01 01:46:64
  TRACK 46 AUDIO
    TITLE "DISC1Track16_46"
    INDEX 01 01:50:16
